<svg width="470" height="288" viewBox="0 0 470 288" fill="none" xmlns="http://www.w3.org/2000/svg">
<path d="M408.97 153.465C412.674 144.731 411.157 137.12 411.157 128.069C411.157 126.308 410.838 120.944 412.688 119.984C415.606 118.471 418.333 117.46 421.776 117.46C424.065 117.46 426.365 117.526 428.653 117.46C430.942 117.394 433.158 116.463 435.421 116.186C439.63 115.671 444.009 116.389 448.166 116.389C451.467 116.389 454.881 116.817 458.056 116.817C458.62 116.817 460.918 117.086 461.288 117.413C462.421 118.412 462.097 120.015 462.989 120.889" stroke="#5C5C5C" stroke-width="1.66333" stroke-linecap="round" stroke-linejoin="round"/>
<path d="M462.771 121.663C462.915 124.241 462.969 127.857 464.03 130.376C464.717 132.008 464.169 134.18 464.308 135.918C464.575 139.255 464.078 142.507 464.078 145.744C464.078 150.087 464.296 154.373 464.296 158.692C464.296 162.399 460.674 161.778 457.81 161.258C455.335 160.808 452.015 161.71 449.436 161.742C444.461 161.803 439.462 162.177 434.479 162.177C430.317 162.177 427.227 160.969 423.395 159.515C421.348 158.739 420.111 158.91 417.913 158.91C415.831 158.91 414.119 158.585 412.032 159.237C410.811 159.618 408.624 159.289 407.93 158.039C407.097 156.54 408.752 155.89 408.752 154.663C408.752 153.632 408.623 150.686 408.97 153.465" stroke="#5C5C5C" stroke-width="1.66333" stroke-linecap="round" stroke-linejoin="round"/>
<path d="M433.801 127.326C433.801 127.326 434.673 127.762 435.544 128.633C436.415 129.287 438.249 128.96 439.791 128.96C440.603 128.96 441.46 128.328 442.187 128.004C443.661 127.349 442.782 128.581 442.429 129.287C442.039 130.068 442.485 131.52 443.192 132.01C444.358 132.817 445.512 132.12 446.653 131.55C447.126 131.313 446.996 131.203 447.143 131.526C447.341 131.963 447.306 132.597 447.306 133.075C447.306 134.16 447.235 135.964 446.653 136.91C445.887 138.155 445.113 138.96 443.881 139.875C442.665 140.779 441.058 142.356 439.44 142.356C436.28 142.356 432.926 141.667 431.345 138.593C430.675 137.289 429.445 136.222 429.445 134.732C429.445 133.489 429.034 132 429.445 130.812C429.944 129.371 431.188 128.004 430.752 128.004C430.974 128.068 432.93 126.891 433.801 127.326Z" stroke="#5C5C5C" stroke-width="1.66333" stroke-linecap="round" stroke-linejoin="round"/>
<path d="M437.395 126.564C438.621 126.111 441.42 125.16 442.078 123.678C442.588 122.533 440.905 122.317 440.009 122.317C438.923 122.317 437.636 123.818 437.347 124.767C437.186 125.295 437.034 125.835 436.875 126.371C436.799 126.629 436.901 126.816 436.954 127.054C436.994 127.236 438.656 126.364 438.593 126.114" stroke="#5C5C5C" stroke-width="1.66333" stroke-linecap="round" stroke-linejoin="round"/>
<path d="M458.961 151.073L411.179 152.123C406.077 152.235 402 156.402 402 161.505C402 166.688 406.202 170.89 411.385 170.89H459.178C464.651 170.89 469.088 166.453 469.088 160.98C469.088 155.422 464.517 150.951 458.961 151.073Z" fill="#5C5C5C" stroke="#5C5C5C" stroke-width="1.66333"/>
<path d="M421.742 151.86C422.466 152.981 423.09 154.327 423.92 155.365C424.338 155.887 424.271 155.781 425.08 155.481C426.431 154.981 427.962 155.339 429.372 155.339C430.609 155.339 432.048 154.693 433.251 155.017C434.644 155.392 436.287 154.676 437.658 154.643C439.311 154.604 440.886 154.759 442.53 154.759C443.521 154.759 444.487 154.179 445.404 154.179C445.936 154.179 447.453 154.601 447.492 153.625C447.511 153.15 447.724 152.688 447.724 152.208C447.724 151.558 447.335 151.839 446.68 151.512" stroke="#5C5C5C" stroke-width="1.66333" stroke-linecap="round" stroke-linejoin="round"/>
<path d="M198.426 66.848C202.525 59.418 202.283 57.2954 201.348 49.8166C200.834 45.6981 200.637 41.6742 199.595 37.6225C197.732 30.3769 197.127 20.6201 202.961 14.7863C214.44 3.30719 235.817 19.6325 229.344 34.1961C226.881 39.7388 222.624 43.8426 219.549 49.0708C218.315 51.1676 217.625 53.4404 216.022 55.3996C214.484 57.2786 212.575 59.6171 212.575 61.9502C212.575 63.921 213.163 66.4763 211.769 68.2185C209.843 70.6253 210.528 69.3875 207.677 69.3875C205.718 69.3875 202.828 67.83 201.248 66.5658C200.119 65.6632 199.514 68.2738 199.514 65.7596C199.514 63.6013 200.209 65.3968 198.789 65.3968" stroke="#5C5C5C" stroke-width="1.66333" stroke-linecap="round" stroke-linejoin="round"/>
<path d="M207.496 73.7412C203.616 72.5844 192.877 70.0012 195.362 73.197C198.361 77.0528 199.644 75.1204 203.324 75.9381C205.206 76.3563 207.04 82.1645 204.956 82.2871C201.98 82.4622 200.006 78.4576 196.975 78.4576C194.216 78.4576 194.413 82.0887 196.068 83.3755C198.252 85.0748 200.765 83.2482 202.235 85.8949C204.559 90.0775 198.212 89.397 196.41 88.4144C194.595 87.4244 192.869 85.8786 191.533 84.9879" stroke="#5C5C5C" stroke-width="1.66333" stroke-linecap="round" stroke-linejoin="round"/>
<path d="M198.426 65.6689C198.475 65.9848 198.527 68.1178 199.378 68.1178C199.837 68.1178 200.048 67.8398 200.467 68.0725C200.959 68.3462 201.421 68.9905 201.893 69.3675C202.308 69.6997 203.54 69.6587 203.777 70.0729C204.164 70.7498 204.949 71.1202 205.682 71.2016C206.632 71.3072 206.983 71.7841 207.995 71.5594C208.304 71.4907 208.335 71.2923 208.625 71.2923C209.072 71.2923 209.265 71.5061 209.602 71.1311C209.976 70.716 210.586 70.5216 210.766 69.8915C211.011 69.0349 211.908 68.5841 210.58 69.1155" stroke="#5C5C5C" stroke-width="1.66333" stroke-linecap="round" stroke-linejoin="round"/>
<path d="M215.931 29.7518C214.308 29.7606 212.967 29.8652 212.414 31.586C212.037 32.7568 212.031 33.9074 212.031 35.1233C212.031 36.3053 212.756 37.2557 212.756 38.3683C212.756 39.8391 211.58 39.5983 210.585 40.0462C209.644 40.4694 208.963 40.8229 208.453 41.7695C207.948 42.707 208.33 44.5196 208.398 45.5386C208.456 46.4155 208.873 48.2792 208.267 49.0205C207.937 49.4233 206.136 50.0452 207.314 49.1616" stroke="#5C5C5C" stroke-width="1.66333" stroke-linecap="round" stroke-linejoin="round"/>
<path d="M229.627 46.1685C230.926 47.0318 232.25 47.7551 233.703 48.2999C234.312 48.5283 235.114 48.9359 234.978 47.9825" stroke="#5C5C5C" stroke-width="1.66333" stroke-linecap="round" stroke-linejoin="round"/>
<path d="M234.343 33.6519C236.646 34.2062 238.933 34.8311 241.216 35.4457C241.596 35.5479 240.724 34.5879 240.692 34.5589" stroke="#5C5C5C" stroke-width="1.66333" stroke-linecap="round" stroke-linejoin="round"/>
<path d="M234.978 21.7703C237.363 21.4237 239.74 20.9936 242.113 20.571C243.205 20.3765 243.668 20.5197 243.05 19.5935" stroke="#5C5C5C" stroke-width="1.66333" stroke-linecap="round" stroke-linejoin="round"/>
<path d="M222.099 9.16302C223.983 8.83191 225.616 8.51286 227.319 7.66144C228.116 7.2629 228.883 6.78388 229.717 6.46219C230.708 6.07991 230.729 6.1963 229.627 5.53503" stroke="#5C5C5C" stroke-width="1.66333" stroke-linecap="round" stroke-linejoin="round"/>
<path d="M205.682 1C205.407 2.925 205.498 4.07795 206.276 5.8222C206.696 6.76251 207.051 7.95101 207.259 8.96646C207.33 9.31615 207.37 9.5152 207.607 9.77772C207.695 9.87598 207.371 8.70781 207.314 8.52808" stroke="#5C5C5C" stroke-width="1.66333" stroke-linecap="round" stroke-linejoin="round"/>
<path d="M191.805 8.70947C192.407 10.7142 193.265 12.6371 193.78 14.6453C194.04 15.6612 193.878 15.723 193.437 14.6957" stroke="#5C5C5C" stroke-width="1.66333" stroke-linecap="round" stroke-linejoin="round"/>
<path d="M186 23.1307C188.061 24.9143 189.751 27.1282 191.351 29.3185C191.552 29.593 191.784 29.6905 192.006 29.9131C192.512 30.4186 191.639 29.2766 191.533 29.1169" stroke="#5C5C5C" stroke-width="1.66333" stroke-linecap="round" stroke-linejoin="round"/>
<path d="M9.18781 131.852C8.25035 133.181 7.02947 134.322 6.37815 135.811C6.14423 136.346 6.06653 136.926 5.81764 137.443C5.56442 137.969 5.26052 138.585 5.07265 139.131C4.70149 140.211 3.8309 141.054 3.23502 141.991C2.8845 142.542 2.30521 143.399 1.76633 143.793C1.49191 143.993 0.756192 144.957 1.08165 145.038C1.8395 145.228 2.48247 145.631 3.15697 146.028C4.08452 146.574 5.00836 146.986 5.83538 147.685C6.88099 148.568 8.12175 149.196 9.14524 150.111C9.94769 150.828 10.6447 151.659 11.4582 152.371C12.1607 152.985 13.0067 153.439 13.7216 154.042C13.7743 154.086 14.2832 154.514 14.2218 154.606C14.1584 154.701 13.3997 153.726 13.3385 153.627" stroke="#5C5C5C" stroke-width="1.66333" stroke-linecap="round" stroke-linejoin="round"/>
<path d="M25.4073 130.766C23.9126 134.318 22.2782 137.808 20.7955 141.366C19.8758 143.574 19.1025 145.805 18.3193 148.068C17.7036 149.846 16.9409 151.582 16.2759 153.339C16.045 153.95 15.8862 154.573 15.7509 155.209C15.5294 156.25 15.5519 155.038 15.5735 154.585" stroke="#5C5C5C" stroke-width="1.66333" stroke-linecap="round" stroke-linejoin="round"/>
<path d="M28.7278 130C30.0294 131.483 31.2755 132.974 32.6585 134.378C33.7887 135.525 34.2888 137.182 34.9219 138.621C35.5788 140.114 36.2364 141.35 37.2065 142.643C37.3212 142.797 37.6606 143.175 37.6606 143.374C37.6606 143.47 37.2027 143.467 37.1284 143.477C36.8756 143.511 36.5742 143.725 36.3622 143.857C32.5171 146.243 29.9175 149.693 27.6565 153.513C27.2701 154.166 26.984 155.111 26.4255 155.613C26.0649 155.938 25.7708 156.365 25.3435 156.578C24.9416 156.779 25.2265 156.068 25.2796 155.67" stroke="#5C5C5C" stroke-width="1.66333" stroke-linecap="round" stroke-linejoin="round"/>
<path d="M191.398 199.949C216.61 200.743 243.985 199.588 269.095 197.277C282.53 196.041 296.082 195.777 309.364 194.251C311.236 194.036 317.209 191.903 318.155 193.741C319.649 196.64 319.965 200.782 319.787 203.84C319.27 212.721 320.736 222.411 323.314 231.072C325.359 237.942 326.893 243.669 326.893 250.72C326.893 254.577 329.644 260.919 326.472 263.963C317.63 272.45 298.235 275.917 284.781 278.463C265.013 282.205 245.461 286.088 225.035 286.912C212.365 287.423 200.175 285.537 187.661 285.537C176.134 285.537 177.231 285.36 173.185 277.206C169.2 269.174 168.658 261.943 168.658 253.314C168.658 248.822 166.011 243.905 164.394 239.56C163.169 236.269 165.133 232.24 165.763 228.95C166.423 225.499 173.355 217.579 171.027 214.45C168.744 211.383 167.533 206.133 171.29 203.329C174.357 201.039 219.527 198.279 178.133 204.901" stroke="white" stroke-width="1.66333" stroke-linecap="round" stroke-linejoin="round"/>
<path d="M170.553 208.437C175.811 213.712 179.98 219.961 185.292 225.06C187.058 226.754 191.281 228.222 192.346 230.011C195.229 234.854 211.831 239.109 217.929 242.036C224.812 245.339 238.976 259.922 248.723 252.646C267.045 238.968 285.905 225.596 304.153 211.974C307.601 209.4 308.795 205.993 311.944 203.643C321.527 196.489 305.575 197.12 300.363 197.12" stroke="white" stroke-width="1.66333" stroke-linecap="round" stroke-linejoin="round"/>
</svg>
